<svg width="329" height="77" viewBox="0 0 329 77" fill="none" xmlns="http://www.w3.org/2000/svg">
<g clip-path="url(#clip0_1_197)">
<g clip-path="url(#clip1_1_197)">
<path d="M29.8154 10.3646L27.8167 13.3708C28.7806 15.2933 29.2525 17.4249 29.1901 19.5746C29.1277 21.7243 28.5329 23.825 27.4592 25.6883H4.93666C3.54106 23.2672 2.96277 20.4609 3.28751 17.6853C3.61226 14.9097 4.82277 12.3126 6.73956 10.2791C8.65636 8.2456 11.1774 6.88388 13.929 6.39581C16.6806 5.90775 19.5162 6.31934 22.0154 7.56956L25.0217 5.57081C21.9609 3.60816 18.3304 2.72869 14.7109 3.07308C11.0913 3.41747 7.69176 4.96581 5.05609 7.47045C2.42042 9.97509 0.700875 13.2913 0.172515 16.8886C-0.355844 20.486 0.337506 24.1566 2.14166 27.3133C2.42524 27.8045 2.83243 28.2129 3.32276 28.498C3.81309 28.7831 4.36949 28.9349 4.93666 28.9383H27.4429C28.0156 28.9406 28.5787 28.7915 29.0752 28.5061C29.5718 28.2208 29.9841 27.8093 30.2704 27.3133C31.7676 24.7197 32.519 21.7627 32.4416 18.769C32.3642 15.7752 31.461 12.8611 29.8317 10.3483L29.8154 10.3646ZM13.9067 21.4796C14.2085 21.7817 14.5669 22.0214 14.9615 22.185C15.356 22.3486 15.7789 22.4327 16.206 22.4327C16.6331 22.4327 17.056 22.3486 17.4506 22.185C17.8451 22.0214 18.2036 21.7817 18.5054 21.4796L27.7029 7.68331L13.9067 16.8808C13.6045 17.1826 13.3648 17.5411 13.2012 17.9356C13.0377 18.3302 12.9535 18.7531 12.9535 19.1802C12.9535 19.6073 13.0377 20.0302 13.2012 20.4247C13.3648 20.8193 13.6045 21.1777 13.9067 21.4796V21.4796Z" fill="#FFA62B"/>
</g>
<path d="M56 11.12V14.976C56 15.3067 56.0853 15.568 56.256 15.76C56.4267 15.9413 56.6293 16.032 56.864 16.032C57.312 16.032 57.6907 15.8293 58 15.424L58.896 17.104C58.1493 17.7867 57.36 18.128 56.528 18.128C55.7067 18.128 55.008 17.856 54.432 17.312C53.8667 16.768 53.584 16.0267 53.584 15.088V11.12H52.576V9.392H53.584V6.816H56V9.392H58.08V11.12H56ZM62.6829 13.36V18H60.2829V6.128H62.6829V10.352C63.4082 9.616 64.2189 9.248 65.1149 9.248C66.0215 9.248 66.7842 9.568 67.4029 10.208C68.0215 10.848 68.3309 11.7013 68.3309 12.768V18H65.9309V13.296C65.9309 11.9733 65.4455 11.312 64.4749 11.312C63.9949 11.312 63.5735 11.488 63.2109 11.84C62.8589 12.1813 62.6829 12.688 62.6829 13.36ZM78.0576 16.752C77.087 17.6693 75.9456 18.128 74.6336 18.128C73.3323 18.128 72.255 17.728 71.4016 16.928C70.5483 16.1173 70.1216 15.0347 70.1216 13.68C70.1216 12.3253 70.5536 11.248 71.4176 10.448C72.2923 9.648 73.3216 9.248 74.5056 9.248C75.6896 9.248 76.6923 9.60533 77.5136 10.32C78.3456 11.0347 78.7616 12.016 78.7616 13.264V14.544H72.4896C72.5643 15.0133 72.8096 15.3973 73.2256 15.696C73.6416 15.9947 74.111 16.144 74.6336 16.144C75.4763 16.144 76.1696 15.8613 76.7136 15.296L78.0576 16.752ZM76.3296 12.832C76.2763 12.32 76.0843 11.9253 75.7536 11.648C75.423 11.3707 75.0176 11.232 74.5376 11.232C74.0683 11.232 73.6363 11.376 73.2416 11.664C72.847 11.952 72.6176 12.3413 72.5536 12.832H76.3296ZM88.543 18.128C87.4443 18.128 86.4843 17.7173 85.663 16.896C84.8417 16.064 84.431 15.0027 84.431 13.712C84.431 12.4107 84.831 11.344 85.631 10.512C86.431 9.66933 87.3217 9.248 88.303 9.248C89.2843 9.248 90.143 9.616 90.879 10.352V9.392H93.295V21.104H90.879V17.312C90.1963 17.856 89.4177 18.128 88.543 18.128ZM86.847 13.712C86.847 14.4053 87.055 14.976 87.471 15.424C87.887 15.8613 88.3723 16.08 88.927 16.08C89.4817 16.08 89.951 15.8613 90.335 15.424C90.719 14.976 90.911 14.4053 90.911 13.712C90.911 13.008 90.719 12.4267 90.335 11.968C89.951 11.4987 89.4763 11.264 88.911 11.264C88.3457 11.264 87.8603 11.4987 87.455 11.968C87.0497 12.4267 86.847 13.008 86.847 13.712ZM101.219 14.032V9.392H103.635V18H101.219V16.864C100.622 17.7067 99.8486 18.128 98.8993 18.128C97.9606 18.128 97.1713 17.8347 96.5312 17.248C95.8913 16.6507 95.5713 15.7707 95.5713 14.608V9.392H97.9873V14.08C97.9873 15.4027 98.4726 16.064 99.4433 16.064C99.9233 16.064 100.339 15.8933 100.691 15.552C101.043 15.2 101.219 14.6933 101.219 14.032ZM108.402 18H106.002V9.392H108.402V18ZM106.194 8.304C105.927 8.02667 105.794 7.69067 105.794 7.296C105.794 6.90133 105.927 6.57067 106.194 6.304C106.471 6.02667 106.807 5.888 107.202 5.888C107.596 5.888 107.927 6.02667 108.194 6.304C108.471 6.57067 108.61 6.90133 108.61 7.296C108.61 7.69067 108.471 8.02667 108.194 8.304C107.927 8.57067 107.596 8.704 107.202 8.704C106.807 8.704 106.471 8.57067 106.194 8.304ZM114.902 16C115.702 16 116.422 15.6 117.062 14.8L118.486 16.4C117.376 17.552 116.176 18.128 114.886 18.128C113.595 18.128 112.502 17.7227 111.606 16.912C110.72 16.0907 110.278 15.024 110.278 13.712C110.278 12.3893 110.726 11.3173 111.622 10.496C112.528 9.664 113.6 9.248 114.838 9.248C115.456 9.248 116.08 9.376 116.71 9.632C117.35 9.888 117.91 10.2667 118.39 10.768L117.142 12.4C116.864 12.0693 116.523 11.8133 116.118 11.632C115.723 11.4507 115.328 11.36 114.934 11.36C114.304 11.36 113.76 11.568 113.302 11.984C112.854 12.3893 112.63 12.96 112.63 13.696C112.63 14.4213 112.854 14.9867 113.302 15.392C113.76 15.7973 114.294 16 114.902 16ZM122.586 18H120.186V6.128H122.586V12.224L125.258 9.376H128.282L125.002 12.864L128.41 18H125.562L123.37 14.704L122.586 15.52V18ZM136.984 8.896V9.472H139.064V11.2H136.984V18H134.568V11.2H133.56V9.472H134.568V8.944C134.568 8.00533 134.851 7.264 135.416 6.72C135.992 6.16533 136.702 5.888 137.544 5.888C138.398 5.888 139.171 6.208 139.864 6.848L139 8.464C138.648 8.05867 138.259 7.856 137.832 7.856C137.587 7.856 137.384 7.94667 137.224 8.128C137.064 8.29867 136.984 8.55467 136.984 8.896ZM142.375 13.696C142.375 14.4 142.572 14.976 142.967 15.424C143.372 15.8613 143.884 16.08 144.503 16.08C145.132 16.08 145.644 15.8613 146.039 15.424C146.444 14.976 146.647 14.4 146.647 13.696C146.647 12.992 146.444 12.416 146.039 11.968C145.644 11.52 145.132 11.296 144.503 11.296C143.884 11.296 143.372 11.52 142.967 11.968C142.572 12.416 142.375 12.992 142.375 13.696ZM149.063 13.696C149.063 14.944 148.631 15.9947 147.767 16.848C146.903 17.7013 145.815 18.128 144.503 18.128C143.201 18.128 142.119 17.7013 141.255 16.848C140.391 15.9947 139.959 14.944 139.959 13.696C139.959 12.448 140.391 11.3973 141.255 10.544C142.119 9.68 143.201 9.248 144.503 9.248C145.815 9.248 146.903 9.68 147.767 10.544C148.631 11.3973 149.063 12.448 149.063 13.696ZM152.682 9.392L154.154 11.696L155.674 9.392H158.49L155.53 13.6L158.602 18H155.738L154.058 15.632L152.426 18H149.658L152.666 13.616L149.818 9.392H152.682ZM165.18 18.16V9.376H167.58V18.352C167.58 19.2907 167.292 20.032 166.716 20.576C166.151 21.12 165.452 21.392 164.62 21.392C163.799 21.392 163.015 21.0507 162.268 20.368L163.372 18.592C163.692 18.9653 164.049 19.152 164.444 19.152C164.657 19.152 164.833 19.0667 164.972 18.896C165.111 18.736 165.18 18.4907 165.18 18.16ZM165.372 8.304C165.105 8.02667 164.972 7.69067 164.972 7.296C164.972 6.90133 165.105 6.57067 165.372 6.304C165.649 6.02667 165.985 5.888 166.38 5.888C166.775 5.888 167.105 6.02667 167.372 6.304C167.649 6.57067 167.788 6.90133 167.788 7.296C167.788 7.69067 167.649 8.02667 167.372 8.304C167.105 8.57067 166.775 8.704 166.38 8.704C165.985 8.704 165.649 8.57067 165.372 8.304ZM175.501 14.032V9.392H177.917V18H175.501V16.864C174.903 17.7067 174.13 18.128 173.181 18.128C172.242 18.128 171.453 17.8347 170.812 17.248C170.173 16.6507 169.853 15.7707 169.853 14.608V9.392H172.269V14.08C172.269 15.4027 172.754 16.064 173.725 16.064C174.205 16.064 174.621 15.8933 174.973 15.552C175.325 15.2 175.501 14.6933 175.501 14.032ZM188.187 13.36V18H185.771V13.296C185.771 12.6133 185.664 12.112 185.451 11.792C185.248 11.472 184.912 11.312 184.443 11.312C183.984 11.312 183.574 11.488 183.211 11.84C182.859 12.1813 182.683 12.688 182.683 13.36V18H180.283V9.392H182.683V10.368C183.344 9.62133 184.102 9.248 184.955 9.248C185.499 9.248 185.99 9.408 186.427 9.728C186.875 10.048 187.211 10.4373 187.435 10.896C187.766 10.3733 188.208 9.968 188.763 9.68C189.328 9.392 189.894 9.248 190.459 9.248C191.472 9.248 192.288 9.552 192.907 10.16C193.526 10.7573 193.835 11.6267 193.835 12.768V18H191.419V13.296C191.419 11.9733 190.934 11.312 189.963 11.312C189.483 11.312 189.067 11.488 188.715 11.84C188.363 12.1813 188.187 12.688 188.187 13.36ZM201.125 9.248C202.128 9.248 203.019 9.66933 203.797 10.512C204.587 11.344 204.981 12.3947 204.981 13.664C204.981 14.9333 204.587 15.9947 203.797 16.848C203.019 17.7013 202.101 18.128 201.045 18.128C200 18.128 199.157 17.7067 198.517 16.864V21.104H196.117V9.392H198.517V10.352C199.253 9.616 200.123 9.248 201.125 9.248ZM198.485 13.712C198.485 14.4053 198.677 14.976 199.061 15.424C199.456 15.8613 199.931 16.08 200.485 16.08C201.04 16.08 201.525 15.8613 201.941 15.424C202.357 14.976 202.565 14.4053 202.565 13.712C202.565 13.0187 202.363 12.4373 201.957 11.968C201.552 11.4987 201.067 11.264 200.501 11.264C199.936 11.264 199.456 11.4987 199.061 11.968C198.677 12.4267 198.485 13.008 198.485 13.712ZM213.275 15.328C213.275 16.1707 212.961 16.848 212.331 17.36C211.713 17.872 210.923 18.128 209.963 18.128C209.323 18.128 208.657 18.016 207.963 17.792C207.27 17.5573 206.646 17.216 206.091 16.768L207.147 15.264C208.043 15.9573 208.998 16.304 210.011 16.304C210.321 16.304 210.566 16.2453 210.747 16.128C210.929 16 211.019 15.8347 211.019 15.632C211.019 15.4293 210.891 15.2427 210.635 15.072C210.39 14.9013 210.027 14.7413 209.547 14.592C209.078 14.4427 208.715 14.3147 208.459 14.208C208.214 14.1013 207.931 13.9467 207.611 13.744C206.961 13.3387 206.635 12.7413 206.635 11.952C206.635 11.152 206.955 10.5013 207.595 10C208.235 9.49867 209.062 9.248 210.075 9.248C211.089 9.248 212.102 9.58933 213.115 10.272L212.219 11.872C211.473 11.36 210.726 11.104 209.979 11.104C209.243 11.104 208.875 11.3067 208.875 11.712C208.875 11.936 208.993 12.112 209.227 12.24C209.462 12.368 209.851 12.5173 210.395 12.688C210.939 12.8587 211.323 12.992 211.547 13.088C211.782 13.1733 212.059 13.312 212.379 13.504C212.977 13.8667 213.275 14.4747 213.275 15.328ZM221.447 13.696C221.447 14.4 221.644 14.976 222.039 15.424C222.444 15.8613 222.956 16.08 223.575 16.08C224.204 16.08 224.716 15.8613 225.111 15.424C225.516 14.976 225.719 14.4 225.719 13.696C225.719 12.992 225.516 12.416 225.111 11.968C224.716 11.52 224.204 11.296 223.575 11.296C222.956 11.296 222.444 11.52 222.039 11.968C221.644 12.416 221.447 12.992 221.447 13.696ZM228.135 13.696C228.135 14.944 227.703 15.9947 226.839 16.848C225.975 17.7013 224.887 18.128 223.575 18.128C222.273 18.128 221.191 17.7013 220.327 16.848C219.463 15.9947 219.031 14.944 219.031 13.696C219.031 12.448 219.463 11.3973 220.327 10.544C221.191 9.68 222.273 9.248 223.575 9.248C224.887 9.248 225.975 9.68 226.839 10.544C227.703 11.3973 228.135 12.448 228.135 13.696ZM232.15 18L228.742 9.376H231.238L233.382 14.8L235.526 9.376H238.022L234.614 18H232.15ZM246.761 16.752C245.79 17.6693 244.649 18.128 243.337 18.128C242.035 18.128 240.958 17.728 240.105 16.928C239.251 16.1173 238.825 15.0347 238.825 13.68C238.825 12.3253 239.257 11.248 240.121 10.448C240.995 9.648 242.025 9.248 243.209 9.248C244.393 9.248 245.395 9.60533 246.217 10.32C247.049 11.0347 247.465 12.016 247.465 13.264V14.544H241.193C241.267 15.0133 241.513 15.3973 241.929 15.696C242.345 15.9947 242.814 16.144 243.337 16.144C244.179 16.144 244.873 15.8613 245.417 15.296L246.761 16.752ZM245.033 12.832C244.979 12.32 244.787 11.9253 244.457 11.648C244.126 11.3707 243.721 11.232 243.241 11.232C242.771 11.232 242.339 11.376 241.945 11.664C241.55 11.952 241.321 12.3413 241.257 12.832H245.033ZM253.823 11.504C253.109 11.504 252.575 11.76 252.223 12.272C251.871 12.7733 251.695 13.44 251.695 14.272V18H249.295V9.392H251.695V10.528C252.005 10.176 252.389 9.87733 252.847 9.632C253.317 9.38667 253.791 9.25867 254.271 9.248L254.287 11.504H253.823ZM263.156 11.12V14.976C263.156 15.3067 263.242 15.568 263.412 15.76C263.583 15.9413 263.786 16.032 264.02 16.032C264.468 16.032 264.847 15.8293 265.156 15.424L266.052 17.104C265.306 17.7867 264.516 18.128 263.684 18.128C262.863 18.128 262.164 17.856 261.588 17.312C261.023 16.768 260.74 16.0267 260.74 15.088V11.12H259.732V9.392H260.74V6.816H263.156V9.392H265.236V11.12H263.156ZM269.839 13.36V18H267.439V6.128H269.839V10.352C270.564 9.616 271.375 9.248 272.271 9.248C273.178 9.248 273.94 9.568 274.559 10.208C275.178 10.848 275.487 11.7013 275.487 12.768V18H273.087V13.296C273.087 11.9733 272.602 11.312 271.631 11.312C271.151 11.312 270.73 11.488 270.367 11.84C270.015 12.1813 269.839 12.688 269.839 13.36ZM285.214 16.752C284.243 17.6693 283.102 18.128 281.79 18.128C280.489 18.128 279.411 17.728 278.558 16.928C277.705 16.1173 277.278 15.0347 277.278 13.68C277.278 12.3253 277.71 11.248 278.574 10.448C279.449 9.648 280.478 9.248 281.662 9.248C282.846 9.248 283.849 9.60533 284.67 10.32C285.502 11.0347 285.918 12.016 285.918 13.264V14.544H279.646C279.721 15.0133 279.966 15.3973 280.382 15.696C280.798 15.9947 281.267 16.144 281.79 16.144C282.633 16.144 283.326 15.8613 283.87 15.296L285.214 16.752ZM283.486 12.832C283.433 12.32 283.241 11.9253 282.91 11.648C282.579 11.3707 282.174 11.232 281.694 11.232C281.225 11.232 280.793 11.376 280.398 11.664C280.003 11.952 279.774 12.3413 279.71 12.832H283.486ZM294.467 18H292.067V6.128H294.467V18ZM304.151 18H301.895V16.96C301.276 17.7387 300.508 18.128 299.591 18.128C298.684 18.128 297.922 17.8667 297.303 17.344C296.684 16.8107 296.375 16.1067 296.375 15.232C296.375 14.3467 296.695 13.6853 297.335 13.248C297.975 12.8107 298.85 12.592 299.959 12.592H301.751V12.544C301.751 11.6267 301.266 11.168 300.295 11.168C299.879 11.168 299.436 11.2533 298.967 11.424C298.508 11.584 298.119 11.7867 297.799 12.032L296.727 10.48C297.858 9.65867 299.148 9.248 300.599 9.248C301.644 9.248 302.498 9.50933 303.159 10.032C303.82 10.5547 304.151 11.3813 304.151 12.512V18ZM301.735 14.72V14.304H300.231C299.271 14.304 298.791 14.6027 298.791 15.2C298.791 15.5093 298.903 15.7493 299.127 15.92C299.362 16.08 299.692 16.16 300.119 16.16C300.546 16.16 300.919 16.032 301.239 15.776C301.57 15.5093 301.735 15.1573 301.735 14.72ZM306.279 11.376V9.392H313.223V11.264L309.047 16H313.463V18H305.975V16.016L310.039 11.376H306.279ZM316.871 21.392C316.028 21.392 315.234 21.0507 314.487 20.368L315.575 18.592C315.98 18.9867 316.396 19.184 316.823 19.184C317.047 19.184 317.239 19.072 317.399 18.848C317.559 18.6347 317.639 18.4053 317.639 18.16C317.639 17.9147 316.53 14.992 314.311 9.392H316.871L318.967 14.752L321.063 9.392H323.623L319.623 19.536C319.388 20.1227 319.02 20.576 318.519 20.896C318.028 21.2267 317.479 21.392 316.871 21.392ZM56.576 42.128C55.5627 42.128 54.656 41.696 53.856 40.832C53.056 39.968 52.656 38.896 52.656 37.616C52.656 36.336 53.0453 35.2907 53.824 34.48C54.6027 33.6587 55.5147 33.248 56.56 33.248C57.6053 33.248 58.4587 33.616 59.12 34.352V30.128H61.52V42H59.12V40.864C58.448 41.7067 57.6 42.128 56.576 42.128ZM55.072 37.712C55.072 38.4053 55.28 38.976 55.696 39.424C56.112 39.8613 56.5973 40.08 57.152 40.08C57.7067 40.08 58.176 39.8613 58.56 39.424C58.9547 38.976 59.152 38.4053 59.152 37.712C59.152 37.008 58.9547 36.4267 58.56 35.968C58.176 35.4987 57.7013 35.264 57.136 35.264C56.5707 35.264 56.0853 35.4987 55.68 35.968C55.2747 36.4373 55.072 37.0187 55.072 37.712ZM65.8123 37.696C65.8123 38.4 66.0096 38.976 66.4043 39.424C66.8096 39.8613 67.3216 40.08 67.9403 40.08C68.5696 40.08 69.0816 39.8613 69.4763 39.424C69.8816 38.976 70.0843 38.4 70.0843 37.696C70.0843 36.992 69.8816 36.416 69.4763 35.968C69.0816 35.52 68.5696 35.296 67.9403 35.296C67.3216 35.296 66.8096 35.52 66.4043 35.968C66.0096 36.416 65.8123 36.992 65.8123 37.696ZM72.5003 37.696C72.5003 38.944 72.0683 39.9947 71.2043 40.848C70.3403 41.7013 69.2523 42.128 67.9403 42.128C66.6389 42.128 65.5563 41.7013 64.6923 40.848C63.8283 39.9947 63.3963 38.944 63.3963 37.696C63.3963 36.448 63.8283 35.3973 64.6923 34.544C65.5563 33.68 66.6389 33.248 67.9403 33.248C69.2523 33.248 70.3403 33.68 71.2043 34.544C72.0683 35.3973 72.5003 36.448 72.5003 37.696ZM80.4149 37.52C80.4149 36.8267 80.2229 36.2827 79.8389 35.888C79.4549 35.4933 78.9802 35.296 78.4149 35.296C77.8495 35.296 77.3589 35.4933 76.9429 35.888C76.5375 36.2827 76.3349 36.8213 76.3349 37.504C76.3349 38.1867 76.5322 38.7413 76.9269 39.168C77.3322 39.584 77.8229 39.792 78.3989 39.792C78.9749 39.792 79.4549 39.584 79.8389 39.168C80.2229 38.752 80.4149 38.2027 80.4149 37.52ZM80.7509 40.544C79.9935 41.3867 79.0495 41.808 77.9189 41.808C76.7989 41.808 75.8495 41.4293 75.0709 40.672C74.3029 39.904 73.9189 38.8853 73.9189 37.616C73.9189 36.336 74.3135 35.2907 75.1029 34.48C75.9029 33.6587 76.8149 33.248 77.8389 33.248C78.8629 33.248 79.7109 33.6693 80.3829 34.512V33.376H82.7829V40.88C82.7829 41.648 82.6495 42.3307 82.3829 42.928C82.1162 43.5253 81.7589 43.9947 81.3109 44.336C80.4255 45.04 79.3802 45.392 78.1749 45.392C77.5349 45.392 76.8789 45.2853 76.2069 45.072C75.5455 44.8693 74.9642 44.576 74.4629 44.192L75.3909 42.384C76.1802 42.9813 77.0122 43.28 77.8869 43.28C78.7722 43.28 79.4709 43.0613 79.9829 42.624C80.4949 42.1867 80.7509 41.4933 80.7509 40.544Z" fill="#252B42"/>
<path d="M55.304 70H57.124V61.74H60.372V60.2H52.056V61.74H55.304V70ZM66.0119 62.44C64.9759 62.44 64.0939 62.776 63.5199 63.392V59.612H61.7699V70H63.5199V66.22C63.5199 64.722 64.3599 63.966 65.6059 63.966C66.7259 63.966 67.3839 64.61 67.3839 65.94V70H69.1339V65.716C69.1339 63.462 67.8039 62.44 66.0119 62.44ZM72.4359 61.292C73.0939 61.292 73.5559 60.816 73.5559 60.2C73.5559 59.626 73.0799 59.192 72.4359 59.192C71.7919 59.192 71.3159 59.654 71.3159 60.242C71.3159 60.83 71.7919 61.292 72.4359 61.292ZM71.5539 70H73.3039V62.524H71.5539V70ZM80.0427 62.44C78.9507 62.44 78.0407 62.804 77.4667 63.49V62.524H75.8007V70H77.5507V66.22C77.5507 64.722 78.3907 63.966 79.6367 63.966C80.7567 63.966 81.4147 64.61 81.4147 65.94V70H83.1647V65.716C83.1647 63.462 81.8347 62.44 80.0427 62.44ZM91.4071 62.524V63.518C90.7911 62.776 89.8671 62.44 88.8171 62.44C86.6751 62.44 85.0371 63.868 85.0371 66.038C85.0371 68.208 86.6751 69.664 88.8171 69.664C89.8251 69.664 90.7071 69.342 91.3231 68.67V69.062C91.3231 70.574 90.5951 71.33 88.9431 71.33C87.9071 71.33 86.8431 70.98 86.1851 70.434L85.4011 71.75C86.2551 72.45 87.6411 72.814 89.0411 72.814C91.6591 72.814 93.0731 71.582 93.0731 68.866V62.524H91.4071ZM89.0831 68.18C87.7531 68.18 86.8011 67.312 86.8011 66.038C86.8011 64.778 87.7531 63.924 89.0831 63.924C90.3991 63.924 91.3511 64.778 91.3511 66.038C91.3511 67.312 90.3991 68.18 89.0831 68.18ZM97.8838 70.098C99.9838 70.098 101.272 69.188 101.272 67.788C101.272 64.862 96.6518 66.206 96.6518 64.694C96.6518 64.204 97.1558 63.854 98.2198 63.854C98.9338 63.854 99.6478 63.994 100.362 64.414L101.034 63.084C100.362 62.678 99.2278 62.44 98.2338 62.44C96.2178 62.44 94.9438 63.364 94.9438 64.778C94.9438 67.76 99.5638 66.416 99.5638 67.844C99.5638 68.362 99.1018 68.67 97.9958 68.67C97.0578 68.67 96.0498 68.362 95.3918 67.928L94.7198 69.258C95.3918 69.734 96.6378 70.098 97.8838 70.098ZM110.408 70.098C112.732 70.098 114.398 68.502 114.398 66.262C114.398 64.022 112.732 62.44 110.408 62.44C108.112 62.44 106.432 64.022 106.432 66.262C106.432 68.502 108.112 70.098 110.408 70.098ZM110.408 68.6C109.148 68.6 108.196 67.69 108.196 66.262C108.196 64.834 109.148 63.924 110.408 63.924C111.682 63.924 112.634 64.834 112.634 66.262C112.634 67.69 111.682 68.6 110.408 68.6ZM120.513 62.44C119.421 62.44 118.511 62.804 117.937 63.49V62.524H116.271V70H118.021V66.22C118.021 64.722 118.861 63.966 120.107 63.966C121.227 63.966 121.885 64.61 121.885 65.94V70H123.635V65.716C123.635 63.462 122.305 62.44 120.513 62.44ZM132.981 62.44C131.777 62.44 130.615 62.748 129.817 63.364L130.503 64.638C131.063 64.176 131.931 63.896 132.771 63.896C134.017 63.896 134.633 64.498 134.633 65.52V65.632H132.701C130.433 65.632 129.593 66.612 129.593 67.858C129.593 69.16 130.671 70.098 132.379 70.098C133.499 70.098 134.311 69.734 134.731 69.09V70H136.383V65.618C136.383 63.462 135.137 62.44 132.981 62.44ZM132.743 68.824C131.847 68.824 131.315 68.418 131.315 67.788C131.315 67.242 131.637 66.794 132.827 66.794H134.633V67.662C134.339 68.432 133.597 68.824 132.743 68.824ZM148.218 62.524L145.824 68.068L143.5 62.524H141.68L144.886 70H146.692L149.898 62.524H148.218ZM158.014 66.304C158.014 63.966 156.418 62.44 154.234 62.44C152.008 62.44 150.37 64.036 150.37 66.262C150.37 68.488 151.994 70.098 154.5 70.098C155.788 70.098 156.838 69.678 157.51 68.88L156.572 67.802C156.04 68.348 155.382 68.614 154.542 68.614C153.24 68.614 152.33 67.914 152.12 66.822H157.986C158 66.654 158.014 66.444 158.014 66.304ZM154.234 63.84C155.382 63.84 156.208 64.582 156.348 65.66H152.106C152.274 64.568 153.1 63.84 154.234 63.84ZM161.561 63.616V62.524H159.895V70H161.645V66.374C161.645 64.848 162.485 64.064 163.815 64.064C163.941 64.064 164.067 64.078 164.221 64.106V62.44C162.975 62.44 162.065 62.832 161.561 63.616ZM171.499 62.524L169.133 68.054L166.781 62.524H164.961L168.223 70.028L168.097 70.322C167.761 71.064 167.397 71.358 166.781 71.358C166.305 71.358 165.829 71.162 165.493 70.84L164.793 72.128C165.269 72.562 166.053 72.814 166.795 72.814C168.041 72.814 168.993 72.296 169.679 70.602L173.179 62.524H171.499ZM180.852 70.098C182.952 70.098 184.24 69.188 184.24 67.788C184.24 64.862 179.62 66.206 179.62 64.694C179.62 64.204 180.124 63.854 181.188 63.854C181.902 63.854 182.616 63.994 183.33 64.414L184.002 63.084C183.33 62.678 182.196 62.44 181.202 62.44C179.186 62.44 177.912 63.364 177.912 64.778C177.912 67.76 182.532 66.416 182.532 67.844C182.532 68.362 182.07 68.67 180.964 68.67C180.026 68.67 179.018 68.362 178.36 67.928L177.688 69.258C178.36 69.734 179.606 70.098 180.852 70.098ZM195.383 62.44C194.193 62.44 193.185 62.916 192.583 63.686C192.065 62.846 191.155 62.44 190.063 62.44C189.041 62.44 188.173 62.804 187.613 63.476V62.524H185.947V70H187.697V66.206C187.697 64.722 188.481 63.966 189.643 63.966C190.707 63.966 191.323 64.61 191.323 65.94V70H193.073V66.206C193.073 64.722 193.871 63.966 195.019 63.966C196.083 63.966 196.699 64.61 196.699 65.94V70H198.449V65.716C198.449 63.462 197.189 62.44 195.383 62.44ZM203.742 62.44C202.538 62.44 201.376 62.748 200.578 63.364L201.264 64.638C201.824 64.176 202.692 63.896 203.532 63.896C204.778 63.896 205.394 64.498 205.394 65.52V65.632H203.462C201.194 65.632 200.354 66.612 200.354 67.858C200.354 69.16 201.432 70.098 203.14 70.098C204.26 70.098 205.072 69.734 205.492 69.09V70H207.144V65.618C207.144 63.462 205.898 62.44 203.742 62.44ZM203.504 68.824C202.608 68.824 202.076 68.418 202.076 67.788C202.076 67.242 202.398 66.794 203.588 66.794H205.394V67.662C205.1 68.432 204.358 68.824 203.504 68.824ZM209.589 70H211.339V59.612H209.589V70ZM213.836 70H215.586V59.612H213.836V70ZM224.462 70.098C226.562 70.098 227.85 69.188 227.85 67.788C227.85 64.862 223.23 66.206 223.23 64.694C223.23 64.204 223.734 63.854 224.798 63.854C225.512 63.854 226.226 63.994 226.94 64.414L227.612 63.084C226.94 62.678 225.806 62.44 224.812 62.44C222.796 62.44 221.522 63.364 221.522 64.778C221.522 67.76 226.142 66.416 226.142 67.844C226.142 68.362 225.68 68.67 224.574 68.67C223.636 68.67 222.628 68.362 221.97 67.928L221.298 69.258C221.97 69.734 223.216 70.098 224.462 70.098ZM232.987 70.098C234.443 70.098 235.605 69.468 236.179 68.348L234.835 67.564C234.387 68.278 233.715 68.6 232.973 68.6C231.685 68.6 230.705 67.718 230.705 66.262C230.705 64.82 231.685 63.924 232.973 63.924C233.715 63.924 234.387 64.246 234.835 64.96L236.179 64.176C235.605 63.042 234.443 62.44 232.987 62.44C230.621 62.44 228.941 64.022 228.941 66.262C228.941 68.502 230.621 70.098 232.987 70.098ZM240.748 62.44C239.544 62.44 238.382 62.748 237.584 63.364L238.27 64.638C238.83 64.176 239.698 63.896 240.538 63.896C241.784 63.896 242.4 64.498 242.4 65.52V65.632H240.468C238.2 65.632 237.36 66.612 237.36 67.858C237.36 69.16 238.438 70.098 240.146 70.098C241.266 70.098 242.078 69.734 242.498 69.09V70H244.15V65.618C244.15 63.462 242.904 62.44 240.748 62.44ZM240.51 68.824C239.614 68.824 239.082 68.418 239.082 67.788C239.082 67.242 239.404 66.794 240.594 66.794H242.4V67.662C242.106 68.432 241.364 68.824 240.51 68.824ZM246.596 70H248.346V59.612H246.596V70ZM257.871 66.304C257.871 63.966 256.275 62.44 254.091 62.44C251.865 62.44 250.227 64.036 250.227 66.262C250.227 68.488 251.851 70.098 254.357 70.098C255.645 70.098 256.695 69.678 257.367 68.88L256.429 67.802C255.897 68.348 255.239 68.614 254.399 68.614C253.097 68.614 252.187 67.914 251.977 66.822H257.843C257.857 66.654 257.871 66.444 257.871 66.304ZM254.091 63.84C255.239 63.84 256.065 64.582 256.205 65.66H251.963C252.131 64.568 252.957 63.84 254.091 63.84ZM264.381 70.098C265.011 70.098 265.529 69.608 265.529 68.936C265.529 68.236 265.011 67.774 264.381 67.774C263.751 67.774 263.233 68.236 263.233 68.936C263.233 69.608 263.751 70.098 264.381 70.098ZM267.999 70.098C268.629 70.098 269.147 69.608 269.147 68.936C269.147 68.236 268.629 67.774 267.999 67.774C267.369 67.774 266.851 68.236 266.851 68.936C266.851 69.608 267.369 70.098 267.999 70.098ZM271.617 70.098C272.247 70.098 272.765 69.608 272.765 68.936C272.765 68.236 272.247 67.774 271.617 67.774C270.987 67.774 270.469 68.236 270.469 68.936C270.469 69.608 270.987 70.098 271.617 70.098Z" fill="#737373"/>
</g>
<defs>
<clipPath id="clip0_1_197">
<rect width="329" height="77" fill="white"/>
</clipPath>
<clipPath id="clip1_1_197">
<rect width="32" height="32" fill="white"/>
</clipPath>
</defs>
</svg>
